<svg width="15" height="15" viewBox="0 0 15 15" fill="none" xmlns="http://www.w3.org/2000/svg">
<rect width="15" height="15" rx="7.5" fill="#998E78"/>
<path d="M8.18319 6.876C8.57919 6.942 8.89419 7.122 9.12819 7.416C9.36819 7.71 9.48819 8.073 9.48819 8.505C9.48819 8.865 9.40119 9.18 9.22719 9.45C9.05319 9.726 8.81019 9.939 8.49819 10.089C8.18619 10.245 7.82319 10.323 7.40919 10.323C6.95919 10.323 6.56019 10.23 6.21219 10.044C5.87019 9.864 5.61219 9.612 5.43819 9.288L5.86119 8.901C5.98719 9.165 6.17919 9.375 6.43719 9.531C6.70119 9.687 7.02519 9.765 7.40919 9.765C7.85319 9.765 8.20419 9.654 8.46219 9.432C8.72619 9.216 8.85819 8.904 8.85819 8.496C8.85819 8.088 8.72019 7.764 8.44419 7.524C8.17419 7.278 7.78719 7.155 7.28319 7.155H7.05819V6.633H7.30119C7.76319 6.633 8.11719 6.528 8.36319 6.318C8.60919 6.102 8.73219 5.823 8.73219 5.481C8.73219 5.121 8.60619 4.848 8.35419 4.662C8.10819 4.47 7.79919 4.374 7.42719 4.374C7.08519 4.374 6.78219 4.452 6.51819 4.608C6.26019 4.758 6.06519 4.968 5.93319 5.238L5.53719 4.86C5.68719 4.548 5.93919 4.296 6.29319 4.104C6.64719 3.912 7.04319 3.816 7.48119 3.816C7.85319 3.816 8.18019 3.885 8.46219 4.023C8.74419 4.155 8.96619 4.344 9.12819 4.59C9.29019 4.83 9.37119 5.109 9.37119 5.427C9.37119 5.787 9.26319 6.105 9.04719 6.381C8.83719 6.657 8.54919 6.822 8.18319 6.876Z" fill="white"/>
</svg>
